<svg width="14" height="14" viewBox="0 0 14 14" fill="none" xmlns="http://www.w3.org/2000/svg">
<path d="M4.40396 1C4.63592 1 4.82396 1.18795 4.82396 1.41979L4.8238 2.2054H9.334L9.33408 1.42488C9.33408 1.19304 9.52212 1.0051 9.75408 1.0051C9.98604 1.0051 10.1741 1.19304 10.1741 1.42488L10.174 2.2054L11.8 2.20541C12.4627 2.20541 13 2.7424 13 3.40481V11.8006C13 12.463 12.4627 13 11.8 13H2.2C1.53726 13 1 12.463 1 11.8006V3.40481C1 2.7424 1.53726 2.20541 2.2 2.20541L3.9838 2.2054L3.98396 1.41979C3.98396 1.18795 4.172 1 4.40396 1ZM1.84 5.6452V11.8006C1.84 11.9993 2.00118 12.1604 2.2 12.1604H11.8C11.9988 12.1604 12.16 11.9993 12.16 11.8006V5.6536L1.84 5.6452ZM5 9.77119V10.7709H4V9.77119H5ZM7.5 9.77119V10.7709H6.5V9.77119H7.5ZM10 9.77119V10.7709H9V9.77119H10ZM5 7.38506V8.38474H4V7.38506H5ZM7.5 7.38506V8.38474H6.5V7.38506H7.5ZM10 7.38506V8.38474H9V7.38506H10ZM3.9838 3.0448L2.2 3.04499C2.00118 3.04499 1.84 3.20609 1.84 3.40481V4.8058L12.16 4.8142V3.40481C12.16 3.20609 11.9988 3.04499 11.8 3.04499L10.174 3.0448L10.1741 3.60218C10.1741 3.83403 9.98604 4.02197 9.75408 4.02197C9.52212 4.02197 9.33408 3.83403 9.33408 3.60218L9.334 3.0448H4.8238L4.82396 3.59709C4.82396 3.82893 4.63592 4.01688 4.40396 4.01688C4.172 4.01688 3.98396 3.82893 3.98396 3.59709L3.9838 3.0448Z" fill="#121212" stroke="#121212" stroke-width="0.5"/>
</svg>
