<svg width="310" height="310" viewBox="0 0 310 310" fill="none" xmlns="http://www.w3.org/2000/svg">
<rect y="250" width="10" height="10" rx="3" fill="#00EFD4"/>
<rect y="300" width="10" height="10" rx="3" fill="#00EFD4"/>
<rect y="200" width="10" height="10" rx="3" fill="#00EFD4"/>
<rect y="150" width="10" height="10" rx="3" fill="#00EFD4"/>
<rect y="100" width="10" height="10" rx="3" fill="#00EFD4"/>
<rect y="50" width="10" height="10" rx="3" fill="#00EFD4"/>
<rect width="10" height="10" rx="3" fill="#00EFD4"/>
<rect x="200" y="250" width="10" height="10" rx="3" fill="#00EFD4"/>
<rect x="200" y="300" width="10" height="10" rx="3" fill="#00EFD4"/>
<rect x="200" y="200" width="10" height="10" rx="3" fill="#00EFD4"/>
<rect x="100" y="250" width="10" height="10" rx="3" fill="#00EFD4"/>
<rect x="100" y="300" width="10" height="10" rx="3" fill="#00EFD4"/>
<rect x="100" y="200" width="10" height="10" rx="3" fill="#00EFD4"/>
<rect x="100" y="150" width="10" height="10" rx="3" fill="#00EFD4"/>
<rect x="100" y="100" width="10" height="10" rx="3" fill="#00EFD4"/>
<rect x="50" y="250" width="10" height="10" rx="3" fill="#00EFD4"/>
<rect x="50" y="300" width="10" height="10" rx="3" fill="#00EFD4"/>
<rect x="50" y="200" width="10" height="10" rx="3" fill="#00EFD4"/>
<rect x="50" y="150" width="10" height="10" rx="3" fill="#00EFD4"/>
<rect x="50" y="100" width="10" height="10" rx="3" fill="#00EFD4"/>
<rect x="50" y="50" width="10" height="10" rx="3" fill="#00EFD4"/>
<rect x="250" y="250" width="10" height="10" rx="3" fill="#00EFD4"/>
<rect x="250" y="300" width="10" height="10" rx="3" fill="#00EFD4"/>
<rect x="300" y="300" width="10" height="10" rx="3" fill="#00EFD4"/>
<rect x="150" y="250" width="10" height="10" rx="3" fill="#00EFD4"/>
<rect x="150" y="300" width="10" height="10" rx="3" fill="#00EFD4"/>
<rect x="150" y="200" width="10" height="10" rx="3" fill="#00EFD4"/>
<rect x="150" y="150" width="10" height="10" rx="3" fill="#00EFD4"/>
</svg>
