<svg width="10" height="10" viewBox="0 0 10 10" fill="none" xmlns="http://www.w3.org/2000/svg">
<path fill-rule="evenodd" clip-rule="evenodd" d="M5 10C7.76142 10 10 7.76142 10 5C10 2.23858 7.76142 0 5 0C2.23858 0 0 2.23858 0 5C0 7.76142 2.23858 10 5 10ZM5.83333 2.5C5.83333 2.96024 5.46024 3.33333 5 3.33333C4.53976 3.33333 4.16667 2.96024 4.16667 2.5C4.16667 2.03976 4.53976 1.66667 5 1.66667C5.46024 1.66667 5.83333 2.03976 5.83333 2.5ZM4.16667 5C4.16667 4.53976 4.53976 4.16667 5 4.16667C5.46024 4.16667 5.83333 4.53976 5.83333 5V7.5C5.83333 7.96024 5.46024 8.33333 5 8.33333C4.53976 8.33333 4.16667 7.96024 4.16667 7.5V5Z" fill="#121212"/>
</svg>
