<svg width="14" height="16" viewBox="0 0 14 16" fill="none" xmlns="http://www.w3.org/2000/svg">
<path fill-rule="evenodd" clip-rule="evenodd" d="M12.85 4.44L9.57 1.14L9.22 1H1.5L1 1.5V7H2V2H8V5.5L8.5 6H12V7H13V4.8L12.85 4.44ZM9 5V2L12 5H9ZM1.5 8L1 8.5V14.5L1.5 15H12.5L13 14.5V8.5L12.5 8H1.5ZM12 13V14H2V9H12V13ZM4 12H3.68V13H3V10H4.06C4.81 10 5.19 10.36 5.19 11C5.19194 11.136 5.16433 11.2708 5.10908 11.3951C5.05383 11.5195 4.97226 11.6303 4.87 11.72C4.62218 11.9132 4.31397 12.0124 4 12ZM3.94 10.55H3.68V11.48H3.94C4.3 11.48 4.48 11.32 4.48 11.01C4.48 10.7 4.3 10.55 3.94 10.55ZM8 12.58C8.14769 12.4345 8.26317 12.2597 8.33897 12.0667C8.41476 11.8738 8.44918 11.6671 8.44 11.46C8.44 10.46 7.91 10 6.84 10H5.78V13H6.84C7.05153 13.0102 7.26298 12.9784 7.46211 12.9063C7.66123 12.8342 7.84406 12.7233 8 12.58ZM6.45 12.45V10.55H6.78C6.90755 10.5419 7.0354 10.5599 7.15576 10.6029C7.27612 10.6459 7.38644 10.7129 7.48 10.8C7.56476 10.889 7.63061 10.9943 7.67357 11.1094C7.71654 11.2246 7.73573 11.3472 7.73 11.47C7.74498 11.7336 7.65511 11.9924 7.48 12.19C7.38845 12.2776 7.28013 12.3458 7.16156 12.3905C7.04298 12.4352 6.9166 12.4554 6.79 12.45H6.45ZM10.9 11.84H9.93V13H9.25V10H10.99V10.55H9.93V11.29H10.9V11.84Z" fill="black" stroke="black" stroke-width="0.5"/>
</svg>
