<svg width="210" height="210" viewBox="0 0 210 210" fill="none" xmlns="http://www.w3.org/2000/svg">
<rect y="200" width="10" height="10" fill="#FD3E63"/>
<rect y="160" width="10" height="10" fill="#FD3E63"/>
<rect y="120" width="10" height="10" fill="#FD3E63"/>
<rect y="80" width="10" height="10" fill="#FD3E63"/>
<rect y="40" width="10" height="10" fill="#FD3E63"/>
<rect width="10" height="10" fill="#FD3E63"/>
<rect x="160" y="200" width="10" height="10" fill="#FD3E63"/>
<rect x="160" y="160" width="10" height="10" fill="#FD3E63"/>
<rect x="80" y="200" width="10" height="10" fill="#FD3E63"/>
<rect x="80" y="160" width="10" height="10" fill="#FD3E63"/>
<rect x="80" y="120" width="10" height="10" fill="#FD3E63"/>
<rect x="80" y="80" width="10" height="10" fill="#FD3E63"/>
<rect x="40" y="200" width="10" height="10" fill="#FD3E63"/>
<rect x="40" y="160" width="10" height="10" fill="#FD3E63"/>
<rect x="40" y="120" width="10" height="10" fill="#FD3E63"/>
<rect x="40" y="80" width="10" height="10" fill="#FD3E63"/>
<rect x="40" y="40" width="10" height="10" fill="#FD3E63"/>
<rect x="200" y="200" width="10" height="10" fill="#FD3E63"/>
<rect x="120" y="200" width="10" height="10" fill="#FD3E63"/>
<rect x="120" y="160" width="10" height="10" fill="#FD3E63"/>
<rect x="120" y="120" width="10" height="10" fill="#FD3E63"/>
</svg>
