<svg width="210" height="210" viewBox="0 0 210 210" fill="none" xmlns="http://www.w3.org/2000/svg">
<rect x="210" y="10" width="10" height="10" transform="rotate(-180 210 10)" fill="#00EFD4"/>
<rect x="210" y="50" width="10" height="10" transform="rotate(-180 210 50)" fill="#00EFD4"/>
<rect x="210" y="90" width="10" height="10" transform="rotate(-180 210 90)" fill="#00EFD4"/>
<rect x="210" y="130" width="10" height="10" transform="rotate(-180 210 130)" fill="#00EFD4"/>
<rect x="210" y="170" width="10" height="10" transform="rotate(-180 210 170)" fill="#00EFD4"/>
<rect x="210" y="210" width="10" height="10" transform="rotate(-180 210 210)" fill="#00EFD4"/>
<rect x="50" y="10" width="10" height="10" transform="rotate(-180 50 10)" fill="#00EFD4"/>
<rect x="50" y="50" width="10" height="10" transform="rotate(-180 50 50)" fill="#00EFD4"/>
<rect x="130" y="10" width="10" height="10" transform="rotate(-180 130 10)" fill="#00EFD4"/>
<rect x="130" y="50" width="10" height="10" transform="rotate(-180 130 50)" fill="#00EFD4"/>
<rect x="130" y="90" width="10" height="10" transform="rotate(-180 130 90)" fill="#00EFD4"/>
<rect x="130" y="130" width="10" height="10" transform="rotate(-180 130 130)" fill="#00EFD4"/>
<rect x="170" y="10" width="10" height="10" transform="rotate(-180 170 10)" fill="#00EFD4"/>
<rect x="170" y="50" width="10" height="10" transform="rotate(-180 170 50)" fill="#00EFD4"/>
<rect x="170" y="90" width="10" height="10" transform="rotate(-180 170 90)" fill="#00EFD4"/>
<rect x="170" y="130" width="10" height="10" transform="rotate(-180 170 130)" fill="#00EFD4"/>
<rect x="170" y="170" width="10" height="10" transform="rotate(-180 170 170)" fill="#00EFD4"/>
<rect x="10" y="10" width="10" height="10" transform="rotate(-180 10 10)" fill="#00EFD4"/>
<rect x="90" y="10" width="10" height="10" transform="rotate(-180 90 10)" fill="#00EFD4"/>
<rect x="90" y="50" width="10" height="10" transform="rotate(-180 90 50)" fill="#00EFD4"/>
<rect x="90" y="90" width="10" height="10" transform="rotate(-180 90 90)" fill="#00EFD4"/>
</svg>
